<svg xmlns="http://www.w3.org/2000/svg" viewBox="0 0 2042.35 922.34">
  <defs>
    <style>
      .cls-1 {
        fill: #ffb4a2;
      }

      .cls-2 {
        fill: #ffcdb2;
      }

      .cls-3 {
        fill: #b5838d;
      }
    </style>
  </defs>
  <g id="Layer_2" data-name="Layer 2">
    <g id="Layer_1-2" data-name="Layer 1">
      <g>
        <g id="coor2">
          <g>
            <rect class="cls-1" x="539.7" y="259.52" width="16.81" height="50.29"/>
            <rect class="cls-1" x="539.7" y="783.19" width="16.81" height="50.28"/>
          </g>
          <g>
            <ellipse class="cls-1" cx="448.8" cy="833.19" rx="21.32" ry="13.43"/>
            <ellipse class="cls-1" cx="271.03" cy="833.19" rx="21.32" ry="13.43"/>
            <path class="cls-1" d="M524.76,681.66a6.58,6.58,0,0,0,0,13.16Z"/>
            <path class="cls-1" d="M524.76,740.43a6.58,6.58,0,0,0,0,13.16Z"/>
            <path class="cls-1" d="M494.7,711.72a6.58,6.58,0,1,1-6.58,6.58A6.59,6.59,0,0,1,494.7,711.72Z"/>
            <polygon class="cls-1" points="211.06 705.14 220.79 705.14 220.79 718.3 211.06 718.3 204.46 711.72 211.06 705.14"/>
            <polygon class="cls-1" points="185.06 682.58 198.22 682.58 198.22 692.31 191.64 698.91 185.06 692.31 185.06 682.58"/>
            <polygon class="cls-1" points="172.23 718.3 162.5 718.3 162.5 705.14 172.23 705.14 178.83 711.72 172.23 718.3"/>
            <polygon class="cls-1" points="198.22 740.87 185.06 740.87 185.06 731.14 191.64 724.53 198.22 731.14 198.22 740.87"/>
          </g>
          <g>
            <path class="cls-1" d="M1190.91,114.85a7,7,0,1,1-7,7A7.05,7.05,0,0,1,1190.91,114.85Z"/>
            <path class="cls-1" d="M1222.16,146.1a7,7,0,1,1-7,7A7.05,7.05,0,0,1,1222.16,146.1Z"/>
            <path class="cls-1" d="M1159.66,146.1a7,7,0,1,1-7,7A7.05,7.05,0,0,1,1159.66,146.1Z"/>
            <path class="cls-1" d="M733.52,279.72a7,7,0,1,1-7,7A7.05,7.05,0,0,1,733.52,279.72Z"/>
            <path class="cls-1" d="M740.56,224.26a7,7,0,1,1-7-7A7,7,0,0,1,740.56,224.26Z"/>
            <path class="cls-1" d="M764.77,262.54a7,7,0,1,1,7-7A7,7,0,0,1,764.77,262.54Z"/>
            <path class="cls-1" d="M709.31,255.51a7,7,0,1,1-7-7A7,7,0,0,1,709.31,255.51Z"/>
            <ellipse class="cls-1" cx="723.79" cy="146.1" rx="14.49" ry="22.17"/>
          </g>
          <path class="cls-1" d="M1051.43,489V381.58H830v48h-4.92V441H830v48ZM932,403.27l55.46,32-55.46,32Z"/>
          <path class="cls-1" d="M1753.15,689.42a13.61,13.61,0,1,1,7-25.24,172.16,172.16,0,0,0-26.73-81.53l-29.3,28.51h-89.68v-4.91h-65.54V745.39h65.54v-4.92h89.6l30,27.61a172.24,172.24,0,0,0,26.17-80.63A13.53,13.53,0,0,1,1753.15,689.42Zm-145,31.4a45,45,0,1,1,45-45A45,45,0,0,1,1608.14,720.82Zm79-31.4a13.61,13.61,0,1,1,13.6-13.6A13.6,13.6,0,0,1,1687.17,689.42Zm33,33a13.61,13.61,0,1,1,13.6-13.6A13.6,13.6,0,0,1,1720.16,722.41Zm0-66a13.61,13.61,0,1,1,13.6-13.6A13.6,13.6,0,0,1,1720.16,656.43Z"/>
          <g>
            <polygon class="cls-1" points="887.59 724.5 900.49 724.5 900.49 747.24 923.23 747.24 923.23 760.14 900.49 760.14 900.49 782.88 887.59 782.88 887.59 760.14 864.85 760.14 864.85 747.24 887.59 747.24 887.59 724.5"/>
            <polygon class="cls-1" points="825.51 557.85 783.51 576.46 783.51 595.24 799.91 588.34 798.05 584.14 830.96 569.57 825.51 557.85"/>
            <path class="cls-1" d="M1107.53,641.44A6.45,6.45,0,1,1,1114,635,6.45,6.45,0,0,1,1107.53,641.44Z"/>
            <path class="cls-1" d="M1107.53,700.89a6.45,6.45,0,1,1,6.45-6.45A6.45,6.45,0,0,1,1107.53,700.89Z"/>
            <path class="cls-1" d="M1077.8,671.17a6.46,6.46,0,1,1,6.46-6.45A6.47,6.47,0,0,1,1077.8,671.17Z"/>
            <path class="cls-1" d="M1137.25,658.26a6.46,6.46,0,1,1-6.45,6.46A6.46,6.46,0,0,1,1137.25,658.26Z"/>
            <path class="cls-1" d="M1047.44,746.47a17.21,17.21,0,0,0-14.9,8.61,17.2,17.2,0,0,0,29.8,0A17.21,17.21,0,0,0,1047.44,746.47Z"/>
            <ellipse class="cls-1" cx="815.65" cy="666.87" rx="14.9" ry="8.61"/>
            <polygon class="cls-1" points="1098.92 557.85 1093.47 569.57 1172.84 604.72 1178.28 593.01 1098.92 557.85"/>
          </g>
          <path class="cls-1" d="M1327.33,212.05V881.11H1508V241.72ZM1427.53,598a30,30,0,1,1,30-30A30,30,0,0,1,1427.53,598Z"/>
          <path class="cls-1" d="M1834.51,808a246.63,246.63,0,0,1-33.22,41.23q-6.24,6.22-12.83,12h76.71V808Z"/>
        </g>
        <g id="color1">
          <path class="cls-2" d="M756.47,911.17V358.85H724.92a62,62,0,0,1-11.63-1.12v45.54l-4.91.06V580H673.12V350.53h-5.18V320.66a61.23,61.23,0,0,1-4.65-23.45V176.45H649.77v5.12h-45V577.41h-4.67v15h4.67V911.17ZM690.75,616.93a15.3,15.3,0,1,1-15.3,15.3A15.3,15.3,0,0,1,690.75,616.93Zm0,169.1a22.63,22.63,0,1,1-22.63,22.63A22.63,22.63,0,0,1,690.75,786Z"/>
          <path class="cls-2" d="M973.64,596.61a17.22,17.22,0,1,1-22.85,0H875.56L886.92,642h69.61v4.92H967.9V642h69.61l11.36-45.37Z"/>
          <polygon class="cls-2" points="1076.55 91.86 980.14 91.86 980.14 86.94 944.29 86.94 944.29 91.86 827.65 91.86 827.65 325.11 1076.55 325.11 1076.55 91.86"/>
          <polygon class="cls-2" points="1237.16 197.25 1237.16 770.14 1232.01 770.14 1232.01 823.53 1247.25 886.15 1260.31 886.15 1260.31 881.11 1267.22 881.11 1267.22 202.18 1237.16 197.25"/>
          <polygon class="cls-2" points="426.23 603.47 438.56 603.47 438.56 668.21 375.44 668.21 375.44 673.13 340.96 673.13 340.96 668.21 277.84 668.21 277.84 609.09 426.23 609.09 426.23 603.47"/>
          <rect class="cls-2" x="1557.67" y="823.59" width="100.94" height="21.65"/>
          <path class="cls-2" d="M1608.14,435.34a240.18,240.18,0,0,0-72.45,11.11v40.36a201.83,201.83,0,0,1,72.45-13.37c111.77,0,202.37,90.61,202.37,202.38s-90.6,202.37-202.37,202.37a201.73,201.73,0,0,1-74.78-14.28v22.8h-40.84a239.39,239.39,0,0,0,115.62,29.59c132.81,0,240.48-107.67,240.48-240.48S1741,435.34,1608.14,435.34Z"/>
          <path class="cls-2" d="M1942.05,606.67h-54.91v-4.92h-14a44.53,44.53,0,0,0,34.61,43.35A44.56,44.56,0,0,0,1942.05,606.67Z"/>
          <path class="cls-2" d="M1948,765.29v5h-93.8a240.83,240.83,0,0,1-13.82,27.94H1962v-32.9Z"/>
          <polygon class="cls-2" points="1158.6 184.35 1158.6 541.78 1153.87 541.78 1153.87 556.83 1177.04 567.1 1177.04 187.38 1158.6 184.35"/>
        </g>
        <g id="Shapes">
          <path class="cls-3" d="M144.5,293.79l-18.19,33.26-33.26,18.2,33.26,18.19L144.5,396.7l18.2-33.26L196,345.25l-33.26-18.2Zm10.95,62.4-10.95,20-10.94-20-20-10.94,20-10.95,10.94-20,10.95,20,20,10.95Z"/>
          <path class="cls-3" d="M398.44,403.19A38.83,38.83,0,1,0,437.26,442,38.88,38.88,0,0,0,398.44,403.19Zm0,67.82a29,29,0,1,1,29-29A29,29,0,0,1,398.44,471Z"/>
          <rect class="cls-3" x="385.58" y="215.45" width="9.84" height="33.39"/>
          <rect class="cls-3" x="385.58" y="270.21" width="9.84" height="33.39"/>
          <rect class="cls-3" x="346.42" y="254.61" width="33.39" height="9.84"/>
          <rect class="cls-3" x="401.18" y="254.61" width="33.39" height="9.84"/>
          <path class="cls-3" d="M1883.36,187.84l-18.19-33.26L1847,187.84,1813.71,206,1847,224.22l18.2,33.26,18.19-33.26L1916.62,206ZM1876.11,217l-10.94,20-11-20-20-10.94,20-10.95,11-20,10.94,20,20,10.95Z"/>
          <path class="cls-3" d="M1821,355.57a38.83,38.83,0,1,0,38.83,38.83A38.87,38.87,0,0,0,1821,355.57Zm0,67.82a29,29,0,1,1,29-29A29,29,0,0,1,1821,423.39Z"/>
          <rect class="cls-3" x="1664.72" y="211.43" width="9.84" height="33.39"/>
          <rect class="cls-3" x="1664.72" y="266.19" width="9.84" height="33.39"/>
          <rect class="cls-3" x="1680.32" y="250.59" width="33.39" height="9.84"/>
          <rect class="cls-3" x="1625.56" y="250.59" width="33.39" height="9.84"/>
          <path class="cls-3" d="M1537.55,72.08l-12.64,23.1-23.1,12.64,23.1,12.63,12.64,23.11,12.63-23.11,23.11-12.63-23.11-12.64Zm5.38,41.13-5.38,9.85-5.39-9.85-9.85-5.39,9.85-5.39,5.39-9.85,5.38,9.85,9.86,5.39Z"/>
          <path class="cls-3" d="M229.52,96l-12.64,23.11-23.1,12.63,23.1,12.64,12.64,23.1,12.63-23.1,23.11-12.64-23.11-12.63Zm5.39,41.13L229.52,147l-5.39-9.85-9.85-5.39,9.85-5.39,5.39-9.85,5.39,9.85,9.85,5.39Z"/>
          <path class="cls-3" d="M1796.64,44.08a27.9,27.9,0,1,0-27.9,27.9A27.93,27.93,0,0,0,1796.64,44.08Zm-27.9,18.06a18.07,18.07,0,1,1,18.07-18.06A18.09,18.09,0,0,1,1768.74,62.14Z"/>
          <path class="cls-3" d="M488.12,16.17A27.91,27.91,0,1,0,516,44.08,27.94,27.94,0,0,0,488.12,16.17Zm0,46a18.07,18.07,0,1,1,18.06-18.06A18.08,18.08,0,0,1,488.12,62.14Z"/>
          <rect class="cls-3" x="1333.76" width="9.84" height="33.39"/>
          <rect class="cls-3" x="1333.76" y="54.76" width="9.84" height="33.39"/>
          <rect class="cls-3" x="1349.36" y="39.16" width="33.39" height="9.84"/>
          <rect class="cls-3" x="1294.6" y="39.16" width="33.39" height="9.84"/>
        </g>
        <g id="Lines">
          <path class="cls-3" d="M1720.16,625.29a17.54,17.54,0,1,0,17.53,17.54A17.56,17.56,0,0,0,1720.16,625.29Zm0,25.24a7.71,7.71,0,1,1,7.7-7.7A7.72,7.72,0,0,1,1720.16,650.53Z"/>
          <path class="cls-3" d="M1720.16,691.27a17.54,17.54,0,1,0,17.53,17.54A17.56,17.56,0,0,0,1720.16,691.27Zm0,25.24a7.71,7.71,0,1,1,7.7-7.7A7.72,7.72,0,0,1,1720.16,716.51Z"/>
          <path class="cls-3" d="M1687.17,658.28a17.54,17.54,0,1,0,17.53,17.54A17.56,17.56,0,0,0,1687.17,658.28Zm0,25.24a7.71,7.71,0,1,1,7.7-7.7A7.71,7.71,0,0,1,1687.17,683.52Z"/>
          <path class="cls-3" d="M1753.15,693.35a17.54,17.54,0,1,0-17.54-17.53A17.56,17.56,0,0,0,1753.15,693.35Zm0-25.24a7.71,7.71,0,1,1-7.71,7.71A7.72,7.72,0,0,1,1753.15,668.11Z"/>
          <path class="cls-3" d="M1558.66,675.82a49.48,49.48,0,1,0,49.48-49.48A49.53,49.53,0,0,0,1558.66,675.82Zm89.13,0a39.65,39.65,0,1,1-39.65-39.65A39.69,39.69,0,0,1,1647.79,675.82Z"/>
          <path class="cls-3" d="M1614.6,883.05l-.3-9.82c-4,.12-8.27.12-12.32,0l-.3,9.82c2.13.07,4.3.1,6.46.1S1612.47,883.12,1614.6,883.05Z"/>
          <path class="cls-3" d="M1614.3,478.41l.3-9.83c-4.29-.13-8.57-.13-12.92,0l.3,9.82C1606.12,478.28,1610.21,478.28,1614.3,478.41Z"/>
          <path class="cls-3" d="M1547.48,477.42l2.86,9.41a197.07,197.07,0,0,1,39.32-7.67l-.9-9.79A207.2,207.2,0,0,0,1547.48,477.42Z"/>
          <path class="cls-3" d="M1547.48,874.21a207.93,207.93,0,0,0,41.28,8.06l.9-9.79a197.8,197.8,0,0,1-39.32-7.68Z"/>
          <path class="cls-3" d="M1548.91,585.93h145.28L1748,536.2a197.79,197.79,0,0,1,0,279.27l-53.72-49.76H1548.91v9.83h141.44l50.43,46.73a194.44,194.44,0,0,1-114.16,50.21l.89,9.79a207.35,207.35,0,0,0,0-412.9l-.89,9.79a194.31,194.31,0,0,1,114.2,50.24l-50.47,46.7H1548.91Z"/>
          <rect class="cls-3" x="1601.83" y="652.56" width="12.62" height="12.62"/>
          <rect class="cls-3" x="1601.83" y="686.46" width="12.62" height="12.62"/>
          <rect class="cls-3" x="1584.88" y="669.51" width="12.62" height="12.62"/>
          <rect class="cls-3" x="1618.78" y="669.51" width="12.62" height="12.62"/>
          <rect class="cls-3" x="1839.93" y="823.98" width="9.83" height="21.25"/>
          <rect class="cls-3" x="1816.07" y="823.98" width="9.83" height="21.25"/>
          <path class="cls-3" d="M1614.45,750.3h85.76l47,43.33,3.3-4.12a182.53,182.53,0,0,0-1.06-228.7l-3.39-4.16-45.93,44.68h-85.68v9.83h89.68l41-39.92c46.5,60.88,46.87,146.67.9,208l-42-38.73h-89.6Z"/>
          <rect class="cls-3" x="1548.91" y="601.33" width="52.92" height="9.83"/>
          <rect class="cls-3" x="1548.91" y="740.47" width="52.92" height="9.83"/>
          <rect class="cls-3" x="1557.67" y="813.75" width="100.94" height="9.83"/>
          <rect class="cls-3" x="1633.37" y="840.32" width="12.62" height="9.83"/>
          <rect class="cls-3" x="1595.52" y="840.32" width="25.23" height="9.83"/>
          <rect class="cls-3" x="1570.29" y="840.32" width="12.62" height="9.83"/>
          <rect class="cls-3" x="386.94" y="689.31" width="11.5" height="11.5"/>
          <rect class="cls-3" x="363.95" y="689.31" width="11.5" height="11.5"/>
          <rect class="cls-3" x="340.96" y="689.31" width="11.5" height="11.5"/>
          <rect class="cls-3" x="317.96" y="689.31" width="11.5" height="11.5"/>
          <rect class="cls-3" x="375.44" y="700.81" width="11.5" height="11.5"/>
          <rect class="cls-3" x="352.45" y="700.81" width="11.5" height="11.5"/>
          <rect class="cls-3" x="329.46" y="700.81" width="11.5" height="11.5"/>
          <rect class="cls-3" x="363.95" y="712.3" width="11.5" height="11.5"/>
          <rect class="cls-3" x="352.45" y="723.8" width="11.5" height="11.5"/>
          <rect class="cls-3" x="340.96" y="712.3" width="11.5" height="11.5"/>
          <path class="cls-3" d="M271,851.28a28.35,28.35,0,1,0-28.35-28.35A28.39,28.39,0,0,0,271,851.28Zm0-46.87a18.52,18.52,0,1,1-18.52,18.52A18.54,18.54,0,0,1,271,804.41Z"/>
          <path class="cls-3" d="M448.81,851.28a28.35,28.35,0,1,0-28.36-28.35A28.38,28.38,0,0,0,448.81,851.28Zm0-46.87a18.52,18.52,0,1,1-18.53,18.52A18.54,18.54,0,0,1,448.81,804.41Z"/>
          <path class="cls-3" d="M524.76,675.08v-9.83a16.41,16.41,0,1,0,0,32.82v-9.83a6.58,6.58,0,1,1,0-13.16Z"/>
          <path class="cls-3" d="M524.76,735.2v-9.83a16.41,16.41,0,1,0,0,32.82v-9.83a6.58,6.58,0,1,1,0-13.16Z"/>
          <path class="cls-3" d="M494.7,728.13a16.41,16.41,0,1,0-16.42-16.41A16.43,16.43,0,0,0,494.7,728.13Zm0-23a6.58,6.58,0,1,1-6.58,6.58A6.59,6.59,0,0,1,494.7,705.14Z"/>
          <path class="cls-3" d="M524.76,643.89a68.1,68.1,0,0,0-65.26,49.24l9.46,2.69a58.22,58.22,0,0,1,55.8-42.1Z"/>
          <path class="cls-3" d="M524.76,779.56v-9.84a58.22,58.22,0,0,1-55.8-42.1l-9.46,2.69A68.1,68.1,0,0,0,524.76,779.56Z"/>
          <path class="cls-3" d="M457.2,705.53c-.18,2.05-.28,4.13-.28,6.19s.1,4.15.28,6.19L467,717c-.15-1.76-.24-3.54-.24-5.31s.09-3.55.24-5.31Z"/>
          <path class="cls-3" d="M191.64,779.56a67.84,67.84,0,1,0-65.25-86.43l9.46,2.69a58,58,0,1,1,0,31.8l-9.46,2.69A68.1,68.1,0,0,0,191.64,779.56Z"/>
          <path class="cls-3" d="M124.09,705.53c-.19,2.05-.28,4.13-.28,6.19s.09,4.15.28,6.19l9.79-.88c-.16-1.75-.24-3.54-.24-5.31s.08-3.55.24-5.31Z"/>
          <path class="cls-3" d="M238.78,728.13V695.31H215.16L198.7,711.72l16.46,16.41Zm-19.56-23H229V718.3h-9.73l-6.6-6.58Z"/>
          <path class="cls-3" d="M175.23,688.21l16.41,16.46,16.42-16.46V664.58H175.23Zm9.83-13.8h13.17v9.73l-6.59,6.61-6.58-6.61Z"/>
          <path class="cls-3" d="M144.5,695.31v32.82h23.63l16.46-16.41-16.46-16.41Zm19.56,23h-9.72V705.14h9.72l6.61,6.58Z"/>
          <path class="cls-3" d="M175.23,735.24v23.62h32.83V735.24l-16.42-16.47Zm23,13.79H185.06V739.3l6.58-6.6,6.59,6.6Z"/>
          <rect class="cls-3" x="352.45" y="668.21" width="11.5" height="9.83"/>
          <path class="cls-3" d="M341.79,766.91A16.41,16.41,0,1,0,358.2,750.5,16.43,16.43,0,0,0,341.79,766.91Zm23,0a6.58,6.58,0,1,1-6.58-6.58A6.59,6.59,0,0,1,364.78,766.91Z"/>
          <rect class="cls-3" x="241.77" y="613.15" width="9.83" height="27.43"/>
          <rect class="cls-3" x="464.8" y="613.15" width="9.83" height="27.43"/>
          <path class="cls-3" d="M1148.77,541.78h9.83V184.35l38.67,6.35V563.58h9.83V192.31l20.23,3.32V770.14h9.83V197.25l50.29,8.25V881.11h-27.14v9.83h209.33L1481,911.17H1227.33V921h270.48l-16.89-30.06h56.63V236.61l-388.78-63.84Zm178.56-329.73L1527.72,245V881.11H1327.33Zm-30-4.93,20.22,3.32V881.11h-20.22Z"/>
          <path class="cls-3" d="M1427.53,533a35,35,0,1,0,35,35A35,35,0,0,0,1427.53,533Zm0,60.12a25.14,25.14,0,1,1,25.14-25.14A25.17,25.17,0,0,1,1427.53,593.08Z"/>
          <rect class="cls-3" x="1257.39" y="261.97" width="9.83" height="72.6"/>
          <rect class="cls-3" x="1257.39" y="349.6" width="9.83" height="15.03"/>
          <path class="cls-3" d="M670.81,632.23a19.95,19.95,0,1,0,19.94-19.94A20,20,0,0,0,670.81,632.23Zm30.05,0a10.11,10.11,0,1,1-10.11-10.11A10.12,10.12,0,0,1,700.86,632.23Z"/>
          <path class="cls-3" d="M690.75,836.12a27.46,27.46,0,1,0-27.46-27.46A27.49,27.49,0,0,0,690.75,836.12Zm0-45.09a17.63,17.63,0,1,1-17.63,17.63A17.65,17.65,0,0,1,690.75,791Z"/>
          <rect class="cls-3" x="708.38" y="372.37" width="9.83" height="15.94"/>
          <path class="cls-3" d="M786.53,867.8l43.87-55.88H945.16v-9.83H800.05v9.83H817.9l-31.37,40V371.75H776.7V911.17H604.81V592.44H595V863.53H548.11V843.31h26.64V773.36H548.11V319.64h26.64V249.69H548.11V229.46H595V577.41h9.84V181.57h45v-9.83H595v47.89h-56.7V554.47H456.92v21.79H259.48V554.47H171.66v27.29a96.52,96.52,0,0,0-62.46,71.93L71.55,842.42c-4.9,28,7.08,54.19,31.3,68.75H39V921H524.76v-9.83H172a70.91,70.91,0,0,0,8.23-5.93L235,859.46a51.3,51.3,0,0,0,87.14-31.61h30.31V818H344V804.85h28.36V818H364v9.84H397.7A51.31,51.31,0,0,0,483.23,861l38.37,32.08,6.31-7.54-38-31.81A51.34,51.34,0,1,0,397.7,818H382.21V795h-48v23H322.14a51.34,51.34,0,1,0-93.46,33.91l-54.74,45.77c-11.16,9.33-23.13,13.16-34.4,13.48h-3.06a58.9,58.9,0,0,1-27.62-7.86c-16.68-9.64-32.7-30.25-27.64-59.08l37.62-188.62a86.65,86.65,0,0,1,84.75-69.52H268V678H341v-9.83H277.84V609.09H426.23v-9.84H277.84V586.09H438.56v82.12H375.44V678h72.95V586.09h76.37v-9.83h-58v-12h71.52V921h608.87v-9.83H786.53ZM548.11,259.52h16.81v50.29H548.11Zm0,523.67h16.81v50.29H548.11Zm-99.3-1.78a41.52,41.52,0,1,1-41.52,41.52A41.56,41.56,0,0,1,448.81,781.41Zm-177.78,0a41.52,41.52,0,1,1-41.51,41.52A41.57,41.57,0,0,1,271,781.41ZM249.65,576.26H203.59a95.74,95.74,0,0,0-22.1,2.6V564.3h68.16ZM595,911.17H548.11v-37.8H595Z"/>
          <polygon class="cls-3" points="718.21 403.33 708.38 403.33 708.38 580.01 673.12 580.01 673.12 350.53 663.29 350.53 663.29 589.84 718.21 589.84 718.21 403.33"/>
          <rect class="cls-3" x="874.3" y="155.25" width="79.17" height="9.83" transform="translate(154.42 693.13) rotate(-45)"/>
          <rect class="cls-3" x="872.41" y="203.57" width="179.61" height="9.83" transform="translate(134.4 741.45) rotate(-45)"/>
          <rect class="cls-3" x="970.95" y="251.9" width="79.17" height="9.83" transform="translate(114.34 789.7) rotate(-45)"/>
          <rect class="cls-3" x="764.77" y="94.29" width="11.95" height="9.83"/>
          <rect class="cls-3" x="1147.71" y="94.29" width="11.95" height="9.83"/>
          <rect class="cls-3" x="758.79" y="295.37" width="17.93" height="17.93"/>
          <path class="cls-3" d="M733.52,296.59a16.87,16.87,0,1,0-16.87-16.87A16.89,16.89,0,0,0,733.52,296.59Zm0-23.9a7,7,0,1,1-7,7A7,7,0,0,1,733.52,272.69Z"/>
          <path class="cls-3" d="M716.65,217.22a16.87,16.87,0,1,0,16.87-16.87A16.89,16.89,0,0,0,716.65,217.22Zm23.91,0a7,7,0,1,1-7-7A7.05,7.05,0,0,1,740.56,217.22Z"/>
          <path class="cls-3" d="M764.77,231.6a16.87,16.87,0,1,0,16.87,16.87A16.89,16.89,0,0,0,764.77,231.6Zm0,23.91a7,7,0,1,1,7-7A7.05,7.05,0,0,1,764.77,255.51Z"/>
          <path class="cls-3" d="M685.4,248.47a16.87,16.87,0,1,0,16.87-16.87A16.89,16.89,0,0,0,685.4,248.47Zm23.91,0a7,7,0,1,1-7-7A7.05,7.05,0,0,1,709.31,248.47Z"/>
          <path class="cls-3" d="M762.8,146.1a29.28,29.28,0,1,0-29.28,29.28A29.31,29.31,0,0,0,762.8,146.1Zm-29.28,19.45A19.45,19.45,0,1,1,753,146.1,19.47,19.47,0,0,1,733.52,165.55Z"/>
          <path class="cls-3" d="M1190.91,131.72A16.87,16.87,0,1,0,1174,114.85,16.89,16.89,0,0,0,1190.91,131.72Zm0-23.9a7,7,0,1,1-7,7A7,7,0,0,1,1190.91,107.82Z"/>
          <path class="cls-3" d="M1222.16,163a16.87,16.87,0,1,0-16.87-16.87A16.89,16.89,0,0,0,1222.16,163Zm0-23.9a7,7,0,1,1-7,7A7,7,0,0,1,1222.16,139.07Z"/>
          <path class="cls-3" d="M1159.66,163a16.87,16.87,0,1,0-16.87-16.87A16.89,16.89,0,0,0,1159.66,163Zm0-23.9a7,7,0,1,1-7,7A7,7,0,0,1,1159.66,139.07Z"/>
          <polygon class="cls-3" points="817.82 334.94 1106.61 334.94 1106.61 82.03 980.14 82.03 980.14 91.86 1096.78 91.86 1096.78 325.11 827.65 325.11 827.65 91.86 944.29 91.86 944.29 82.03 817.82 82.03 817.82 334.94"/>
          <rect class="cls-3" x="956.24" y="82.03" width="11.95" height="9.83"/>
          <rect class="cls-3" x="968.19" y="349.02" width="162.32" height="9.83"/>
          <path class="cls-3" d="M724.92,358.85H956.24V349H803.75V82h-9.83V349h-69a51.86,51.86,0,0,1-51.8-51.81V119.76A51.86,51.86,0,0,1,724.92,68h395.76V336h9.83V68h69a51.86,51.86,0,0,1,51.8,51.8v50.71h9.83V119.76a61.7,61.7,0,0,0-61.63-61.63H724.92a61.7,61.7,0,0,0-61.63,61.63V297.21A61.71,61.71,0,0,0,724.92,358.85Z"/>
          <path class="cls-3" d="M1180.45,611.68,1197,576l-97.34-43.12-5.36,11.54H984.18V521.57H1127V371.75h-9.83v140H807.3v-140h-9.83V521.57H940.25v22.81H830.09l-5.36-11.54-26.68,11.81,4,9,17.84-7.9L831,569.57l-32.91,14.57,4,9L838.57,577H860.5l18.75,74.86h77.28V642H886.92l-16.29-65H1053.8l-16.29,65H967.9v9.83h77.28L1063.93,577h21.93l85.2,37.73,65.13,267.57-52.79,27.59-76.87-97.92h16.4l47.35,60.3,7.73-6.07-50.3-64.06H979.27v9.83H1094l86.68,110.42,66.85-35ZM950.08,521.57h24.27v22.81H950.08Zm133.69,45.55H840.66l-6-12.91h255.11Zm9.7,2.45,11.08-23.83,79.36,35.15-11.07,23.83Z"/>
          <rect class="cls-3" x="956.53" y="802.09" width="11.37" height="9.83"/>
          <path class="cls-3" d="M1107.53,612.26a16.28,16.28,0,1,0,16.28,16.28A16.3,16.3,0,0,0,1107.53,612.26Zm0,22.73a6.45,6.45,0,1,1,6.45-6.45A6.45,6.45,0,0,1,1107.53,635Z"/>
          <path class="cls-3" d="M1107.53,671.7A16.29,16.29,0,1,0,1123.81,688,16.31,16.31,0,0,0,1107.53,671.7Zm0,22.74A6.45,6.45,0,1,1,1114,688,6.45,6.45,0,0,1,1107.53,694.44Z"/>
          <path class="cls-3" d="M1077.8,642a16.29,16.29,0,1,0,16.29,16.28A16.3,16.3,0,0,0,1077.8,642Zm0,22.74a6.46,6.46,0,1,1,6.46-6.46A6.47,6.47,0,0,1,1077.8,664.72Z"/>
          <path class="cls-3" d="M1137.25,674.55A16.29,16.29,0,1,0,1121,658.26,16.31,16.31,0,0,0,1137.25,674.55Zm0-22.74a6.46,6.46,0,1,1-6.45,6.45A6.46,6.46,0,0,1,1137.25,651.81Z"/>
          <path class="cls-3" d="M815.65,613.56a44.2,44.2,0,0,0-19.17,4.32l4.23,8.88a34.37,34.37,0,0,1,14.94-3.37,34.88,34.88,0,0,1,0,69.75,34.4,34.4,0,0,1-14.85-3.33l-4.2,8.89a44.2,44.2,0,0,0,19,4.27,44.71,44.71,0,0,0,0-89.41Z"/>
          <path class="cls-3" d="M837.62,658.26a22,22,0,1,0-22,22A22,22,0,0,0,837.62,658.26Zm-34.11,0a12.14,12.14,0,1,1,12.14,12.14A12.14,12.14,0,0,1,803.51,658.26Z"/>
          <path class="cls-3" d="M984.18,609.46a22,22,0,1,0-22,22A22,22,0,0,0,984.18,609.46Zm-22,12.14a12.14,12.14,0,1,1,12.13-12.14A12.15,12.15,0,0,1,962.22,621.6Z"/>
          <path class="cls-3" d="M877.76,730.19H855v32.56h22.74v22.74h32.56V762.75h22.74V730.19H910.32V707.45H877.76Zm9.83-12.91h12.9V740h22.74v12.9H900.49v22.74h-12.9V752.92H864.85V740h22.74Z"/>
          <path class="cls-3" d="M1002.74,746.47a44.71,44.71,0,1,0,44.7-44.7A44.75,44.75,0,0,0,1002.74,746.47Zm79.58,0a34.88,34.88,0,1,1-34.88-34.87A34.91,34.91,0,0,1,1082.32,746.47Z"/>
          <path class="cls-3" d="M1025.47,746.47a22,22,0,1,0,22-22A22,22,0,0,0,1025.47,746.47Zm34.11,0a12.14,12.14,0,1,1-12.14-12.14A12.16,12.16,0,0,1,1059.58,746.47Z"/>
          <rect class="cls-3" x="998.67" y="664.72" width="23.94" height="9.83"/>
          <rect class="cls-3" x="901.82" y="664.72" width="23.94" height="9.83"/>
          <rect class="cls-3" x="1179.83" y="876.98" width="9.83" height="11.43" transform="translate(-292.2 920.03) rotate(-38.14)"/>
          <polygon class="cls-3" points="820.21 440.98 820.21 498.83 1081.49 498.83 1081.49 371.75 820.21 371.75 820.21 429.61 830.04 429.61 830.04 381.58 1071.65 381.58 1071.65 489 830.04 489 830.04 440.98 820.21 440.98"/>
          <rect class="cls-3" x="1094.39" y="420.93" width="9.83" height="28.71"/>
          <path class="cls-3" d="M929.26,476.18l70.83-40.89L929.26,394.4Zm9.83-64.75,41.33,23.86-41.33,23.86Z"/>
          <rect class="cls-3" y="911.17" width="19.48" height="9.83"/>
          <rect class="cls-3" x="2022.87" y="911.17" width="19.48" height="9.83"/>
          <path class="cls-3" d="M1756.66,871H1875V808h96.87V735.18h-30.44V650.51a54.29,54.29,0,1,0-47.69,0v84.67h-47.6a247.24,247.24,0,0,0,7.19-59.36,245,245,0,0,0-245.19-245.19,247.56,247.56,0,0,0-60.43,7.44l2.4,9.54a237.89,237.89,0,0,1,58-7.15A235.44,235.44,0,0,1,1774.62,842.3a238.58,238.58,0,0,1-21.31,18.9h-.16v.13a233.77,233.77,0,0,1-145,49.84V921H2003.4v-9.83H1677.3A242.41,242.41,0,0,0,1756.66,871Zm116.47-269.28a44.45,44.45,0,0,1,88.63-4.91h-74.62v9.83h74.62a44.45,44.45,0,0,1-88.63-4.92Zm58.47,52.45v81h-28v-81a54.26,54.26,0,0,0,28,0Zm-97,116H1948v-9.83h-109.6q2.77-7.62,5.06-15.41H1962v53.18H1820.78A244.07,244.07,0,0,0,1834.6,770.25Zm-53,79A247.2,247.2,0,0,0,1814.8,808h50.37V861.2h-96.43Q1775.33,855.47,1781.57,849.25Z"/>
        </g>
      </g>
    </g>
  </g>
</svg>
